# xmcd CD database file
#
# Track frame offsets:
#	150
#	24947
#	39582
#	61117
#	78527
#	96762
#	117097
#	132932
#	149704
#	167151
#	192286
#	208233
#
# Disc length: 3052 seconds
#
# Revision: 0
# Processed by: cddbd v1.5.2PL0 Copyright (c) Steve Scherf et al.
# Submitted via: CDex 2.13
#
DISCID=a80bea0c
DTITLE=the Black Sorrows - Faithful Satelite
DYEAR=2016
DGENRE=Country
TTITLE0=Cold Grey Moon
TTITLE1=Raise Our Hands
TTITLE2=You Were Never Mine
TTITLE3=Fix My Bail
TTITLE4=It Ain't Ever Gonna Happen
TTITLE5=Winter Rose
TTITLE6=I Love You Anyhow
TTITLE7=Into Twilight
TTITLE8=Carolina
TTITLE9=Love Is On This Way
TTITLE10=Land Of The Dead
TTITLE11=Beat Nightmare
EXTD=YEAR: 2016
EXTT0=
EXTT1=
EXTT2=
EXTT3=
EXTT4=
EXTT5=
EXTT6=
EXTT7=
EXTT8=
EXTT9=
EXTT10=
EXTT11=
PLAYORDER=
